# AST/ASF file generated using VICON BodyLanguage
# -----------------------------------------------
:version 1.10
:name VICON
:units
  mass 1.0
  length 0.45
  angle deg
:documentation
   .ast/.asf automatically generated from VICON data using
   VICON BodyBuilder and BodyLanguage model FoxedUp or BRILLIANT.MOD
:root
   order TX TY TZ RX RY RZ
   axis XYZ
   position 0 0 0  
   orientation 0 0 0 
:bonedata
  begin
     id 1 
     name lhipjoint
     direction 0.677091 -0.635792 0.370561 
     length 2.74323 
     axis 0 0 0  XYZ
  end
  begin
     id 2 
     name lfemur
     direction 0.34202 -0.939693 0  
     length 7.44995  
     axis 0 0 20  XYZ
    dof rx ry rz
    limits (-160.0 20.0)
           (-70.0 70.0)
           (-60.0 70.0)
  end
  begin
     id 3 
     name ltibia
     direction 0.34202 -0.939693 0   
     length 7.34467   
     axis 0 0 20   XYZ
    dof rx
    limits (-10.0 170.0)
  end
  begin
     id 4 
     name lfoot
     direction 0.101953 -0.280114 0.954537   
     length 1.72105   
     axis -90 7.62852e-016 20   XYZ
    dof rx rz
    limits (-45.0 90.0)
           (-70.0 20.0)
  end
  begin
     id 5 
     name ltoes
     direction 1.53537e-011 -4.21915e-011 1   
     length 0.865872   
     axis -90 7.62852e-016 20   XYZ
    dof rx
    limits (-90.0 20.0)
  end
  begin
     id 6 
     name rhipjoint
     direction -0.695735 -0.620586 0.361699   
     length 2.81045  
     axis 0 0 0  XYZ 
  end
  begin
     id 7 
     name rfemur
     direction -0.34202 -0.939693 0   
     length 7.29387   
     axis 0 0 -20   XYZ
    dof rx ry rz
    limits (-160.0 20.0)
           (-70.0 70.0)
           (-70.0 60.0)
  end
  begin
     id 8 
     name rtibia
     direction -0.34202 -0.939693 0   
     length 7.44935   
     axis 0 0 -20   XYZ
    dof rx
    limits (-10.0 170.0)
 end
 begin
     id 9 
     name rfoot
     direction -0.104163 -0.286184 0.952496   
     length 1.77731  
     axis -90 -7.62852e-016 -20   XYZ
    dof rx rz
    limits (-45.0 90.0)
           (-20.0 70.0)
  end
  begin
     id 10 
     name rtoes
     direction -1.5355e-011 -4.21888e-011 1   
     length 0.892424   
     axis -90 -7.62852e-016 -20   XYZ
    dof rx
    limits (-90.0 20.0)
  end
  begin
     id 11 
     name lowerback
     direction 0.0100202 0.997226 -0.0737589   
     length 2.16892   
     axis 0 0 0   XYZ
    dof rx ry rz
    limits (-20.0 45.0)
           (-30.0 30.0)
           (-30.0 30.0)
  end
  begin
     id 12 
     name upperback
     direction 0.00432398 0.999988 -0.00215019   
     length 2.17326   
     axis 0 0 0   XYZ
    dof rx ry rz
    limits (-20.0 45.0)
           (-30.0 30.0)
           (-30.0 30.0)
  end
  begin
     id 13 
     name thorax
     direction -0.00195047 0.999485 0.0320434   
     length 2.18139   
     axis 0 0 0   XYZ
    dof rx ry rz
    limits (-20.0 45.0)
           (-30.0 30.0)
           (-30.0 30.0)
  end
  begin
     id 14 
     name lowerneck
     direction 0.00782762 0.986241 0.165128   
     length 1.88415   
     axis 0 0 0   XYZ
    dof rx ry rz
    limits (-20.0 45.0)
           (-30.0 30.0)
           (-30.0 30.0)
  end
  begin
     id 15 
     name upperneck
     direction 0.00988667 0.981098 -0.193258   
     length 1.9242   
     axis 0 0 0   XYZ
    dof rx ry rz
    limits (-20.0 45.0)
           (-30.0 30.0)
           (-30.0 30.0)
  end
  begin
     id 16
     name head
     direction 0.00252199 0.996513 -0.0833958  
     length 1.93887  
     axis 0 0 0   XYZ
    dof rx ry rz
    limits (-20.0 45.0)
           (-30.0 30.0)
           (-30.0 30.0)
  end
  begin
     id 17 
     name lclavicle
     direction 0.929492 0.368193 -0.0218667  
     length 3.5955  
     axis 0 0 0   XYZ
    dof ry rz
    limits (-20.0 10.0)
           (0.0 20.0)
  end
  begin
     id 18 
     name lhumerus
     direction 1 -4.48972e-011 1.41911e-027   
     length 5.2795   
     axis 180 -30 -90   XYZ
    dof rx ry rz
    limits (-60.0 90.0)
           (-90.0 90.0)
           (-90.0 90.0)
  end
  begin
     id 19
     name lradius
     direction 1 -4.48963e-011 7.05772e-027   
     length 3.53504   
     axis 180 -30 -90   XYZ
    dof rx
    limits (-10.0 170.0)
  end
  begin
     id 20
     name lwrist
     direction 1 -4.48957e-011 9.54866e-027   
     length 1.76752   
     axis -7.69462e-015 90 90   XYZ
    dof ry
    limits (-180.0 0.0)
 end
  begin
     id 21 
     name lhand
     direction 1 -4.48979e-011 1.90973e-026   
     length 0.667948   
     axis -1.21857e-014 90 90   XYZ
    dof rx rz
    limits (-90.0 90.0)
           (-45.0 45.0)
  end
  begin
     id 22 
     name lfingers
     direction 1 -4.48987e-011 3.81946e-026   
     length 0.538517   
     axis -2.43714e-014 90 90   XYZ
    dof rx
    limits (0.0 90.0)
  end
  begin
     id 23
     name lthumb
     direction 0.707107 -6.34962e-011 0.707107   
     length 0.773206   
     axis -90 45 2.85299e-015   XYZ
    dof rx rz
    limits (-45.0 45.0)
           (-45.0 45.0)
  end
  begin
     id 24 
     name rclavicle
     direction -0.898763 0.414256 -0.143584   
     length 3.5176  
     axis 0 0 0   XYZ 
    dof ry rz
    limits (-10.0 20.0)
           (-20.0 0.0)
  end
  begin
     id 25 
     name rhumerus
     direction -1 -4.48971e-011 1.129e-027  
     length 5.25035   
     axis 180 30 90   XYZ
    dof rx ry rz
    limits (-90.0 60.0)
           (-90.0 90.0)
           (-90.0 90.0)
  end
  begin
     id 26 
     name rradius
     direction -1 -4.48955e-011 6.34664e-027   
     length 3.58884   
     axis 180 30 90   XYZ
    dof rx
    limits (-10.0 170.0)
  end
  begin
     id 27 
     name rwrist
     direction -1 -4.48966e-011 9.54866e-027   
     length 1.79442   
     axis -7.69462e-015 -90 -90   XYZ
    dof ry
    limits (-180.0 0.0)
  end
  begin
     id 28
     name rhand
     direction -1 -4.48973e-011 1.90973e-026   
     length 0.779235   
     axis -1.21857e-014 -90 -90   XYZ
    dof rx rz
    limits (-90.0 90.0)
           (-45.0 45.0)
  end
  begin
     id 29
     name rfingers
     direction -1 -4.48984e-011 3.81946e-026   
     length 0.62824   
     axis -2.43714e-014 -90 -90   XYZ
    dof rx
    limits (0.0 90.0)
  end
  begin
     id 30
     name rthumb
     direction -0.707107 -6.34968e-011 0.707107   
     length 0.90203   
     axis -90 -45 -2.85299e-015   XYZ
    dof rx rz
    limits (-45.0 45.0)
           (-45.0 45.0)
  end
:hierarchy
  begin
    root lhipjoint rhipjoint lowerback
    lhipjoint lfemur
    lfemur ltibia
    ltibia lfoot
    lfoot ltoes
    rhipjoint rfemur
    rfemur rtibia
    rtibia rfoot
    rfoot rtoes
    lowerback upperback
    upperback thorax
    thorax lowerneck lclavicle rclavicle
    lowerneck upperneck
    upperneck head
    lclavicle lhumerus
    lhumerus lradius
    lradius lwrist
    lwrist lhand lthumb
    lhand lfingers
    rclavicle rhumerus
    rhumerus rradius
    rradius rwrist
    rwrist rhand rthumb
    rhand rfingers
  end

#!OML:ASF I:\Random Stuff\random\construction\7_22_03\Session 2\subj1.ASF
:FULLY-SPECIFIED
:DEGREES
57
root -20.4955 17.4284 -2.97306 -146.56 84.0031 -151.392
lowerback 2.5183 0.252711 -0.00235032
upperback -2.66023 0.428432 1.66456
thorax -4.16638 0.252625 1.69151
lowerneck -21.5051 1.16469 0.296725
upperneck 28.9679 1.38561 1.9786
head 13.3363 1.09039 1.01087
rclavicle 2.02815e-014 1.15295e-014
rhumerus -37.3097 6.34412 -85.3695
rradius 30.9442
rwrist 0.897243
rhand -15.5831 21.2479
rfingers 7.12502
rthumb 10.6023 -8.46461
lclavicle 2.02815e-014 1.15295e-014
lhumerus -37.6724 -13.0631 94.2501
lradius 32.968
lwrist 26.6844
lhand -20.7772 55.654
lfingers 7.12502
lthumb 5.5895 85.5602
rfemur -2.98248 11.8758 24.9664
rtibia 15.8479
rfoot -14.3006 -37.1883
rtoes 0.30634
lfemur -14.9337 -7.58242 -16.1479
ltibia 30.1835
lfoot -21.0405 9.01735
ltoes -31.0449
58
root -20.4813 17.4334 -2.97189 -147.952 83.5338 -153.094
lowerback 2.31402 0.142763 -0.209676
upperback -2.73548 0.276032 1.72156
thorax -4.12555 0.185135 1.87644
lowerneck -21.4983 1.12083 0.392695
upperneck 28.8498 1.32471 1.84364
head 13.2883 1.0529 0.928265
rclavicle -1.7844e-015 -1.49089e-015
rhumerus -37.0734 5.72145 -84.8449
rradius 30.5622
rwrist 1.22211
rhand -15.7461 21.1215
rfingers 7.12502
rthumb 10.4451 -8.59908
lclavicle -1.7844e-015 -1.49089e-015
lhumerus -37.737 -13.0372 94.4465
lradius 33.0121
lwrist 26.7229
lhand -20.6525 55.82
lfingers 7.12502
lthumb 5.7099 85.7231
rfemur -3.10997 11.9693 25.0456
rtibia 15.6925
rfoot -14.6227 -37.6179
rtoes 1.26481
lfemur -15.3633 -7.79537 -16.0065
ltibia 30.262
lfoot -21.6289 8.37059
ltoes -27.5341
59
root -20.4669 17.4375 -2.97392 -148.421 83.0205 -153.765
lowerback 2.21858 0.0495021 -0.275093
upperback -2.78487 0.152615 1.7806
thorax -4.11894 0.127689 1.98151
lowerneck -21.4856 1.03031 0.370358
upperneck 28.7083 1.1537 1.97187
head 13.2277 0.991385 0.949476
rclavicle -1.82028e-014 -1.31695e-014
rhumerus -36.9335 4.89076 -84.2549
rradius 30.2292
rwrist 1.74737
rhand -15.9393 21.0516
rfingers 7.12502
rthumb 10.2587 -8.67823
lclavicle -1.82028e-014 -1.31695e-014
lhumerus -37.7383 -13.0546 94.6282
lradius 32.9456
lwrist 26.6676
lhand -20.5149 55.7345
lfingers 7.12502
lthumb 5.84273 85.634
rfemur -3.10165 11.9431 25.2472
rtibia 15.4878
rfoot -14.7288 -37.9767
rtoes 1.76341
lfemur -15.6961 -7.95068 -15.7931
ltibia 30.3446
lfoot -21.02 8.52544
ltoes -30.7855
60
root -20.4506 17.4443 -2.97962 -148.98 82.548 -154.469
lowerback 2.18341 0.000164135 -0.322302
upperback -2.82122 0.0857769 1.78237
thorax -4.13439 0.0965114 2.0138
lowerneck -21.5942 0.873171 0.397747
upperneck 28.7033 0.872166 2.09242
head 13.2515 0.888229 0.943975
rclavicle -1.31229e-016 1.11816e-014
rhumerus -36.8874 3.9966 -83.6918
rradius 29.9763
rwrist 2.18778
rhand -16.2347 20.715
rfingers 7.12502
rthumb 9.97378 -9.02872
lclavicle -1.31229e-016 1.11816e-014
lhumerus -37.8059 -13.4122 94.8661
lradius 33.0014
lwrist 26.758
lhand -20.4982 55.438
lfingers 7.12502
lthumb 5.85879 85.337
rfemur -2.98902 11.941 25.4088
rtibia 15.1828
rfoot -14.8916 -38.2851
rtoes 2.53219
lfemur -15.9684 -7.96176 -15.6559
ltibia 30.4555
lfoot -21.4413 8.32333
ltoes -29.8708
61
root -20.4317 17.4526 -2.98799 -149.137 82.1273 -154.772
lowerback 2.13051 0.00983574 -0.332401
upperback -2.85618 0.0987946 1.76986
thorax -4.14115 0.10369 2.00581
lowerneck -21.6642 0.712151 0.114511
upperneck 28.7565 0.586485 2.58345
head 13.2893 0.804089 1.13709
rclavicle -1.46417e-014 5.18083e-015
rhumerus -36.8908 3.15741 -83.1254
rradius 29.7569
rwrist 2.40842
rhand -16.6549 20.2038
rfingers 7.12502
rthumb 9.56833 -9.55897
lclavicle -1.46417e-014 5.18083e-015
lhumerus -37.8955 -13.9087 95.1453
lradius 33.1111
lwrist 26.8114
lhand -20.4085 55.0484
lfingers 7.12502
lthumb 5.94547 84.9449
rfemur -2.85968 12.0058 25.5713
rtibia 14.8065
rfoot -15.0414 -38.5771
rtoes 3.16718
lfemur -16.2126 -8.00457 -15.4956
ltibia 30.5827
lfoot -21.4571 8.224
ltoes -30.5574
62
root -20.4144 17.4565 -2.99851 -148.979 81.7159 -154.748
lowerback 2.07092 0.00444798 -0.30368
upperback -2.8634 0.0935529 1.77942
thorax -4.11461 0.100545 1.99972
lowerneck -21.7115 0.598862 0.0397966
upperneck 28.8388 0.438545 2.62807
head 13.3358 0.739887 1.14389
rclavicle 2.30058e-014 -6.79595e-015
rhumerus -36.8365 2.48533 -82.5966
rradius 29.4514
rwrist 2.52678
rhand -16.9567 20.0283
rfingers 7.12502
rthumb 9.27712 -9.74763
lclavicle 2.30058e-014 -6.79595e-015
lhumerus -37.8788 -14.1235 95.3199
lradius 33.2097
lwrist 26.7372
lhand -20.4238 54.9603
lfingers 7.12502
lthumb 5.93066 84.8573
rfemur -2.72088 12.0766 25.7616
rtibia 14.441
rfoot -15.1833 -38.884
rtoes 3.85412
lfemur -16.4301 -8.15465 -15.2863
ltibia 30.6946
lfoot -20.6755 8.35948
ltoes -34.3393
63
root -20.4004 17.4578 -3.01156 -149.156 81.2953 -155.05
lowerback 2.05829 -0.0391971 -0.316685
upperback -2.87145 0.0355814 1.79218
thorax -4.11369 0.0725109 2.02346
lowerneck -21.7308 0.497879 -0.17299
upperneck 28.917 0.262534 2.97657
head 13.3751 0.692043 1.28887
rclavicle 2.53295e-014 1.3244e-014
rhumerus -36.7962 2.02864 -82.1538
rradius 29.179
rwrist 2.56198
rhand -17.0088 20.0178
rfingers 7.12502
rthumb 9.22688 -9.76029
lclavicle 2.53295e-014 1.3244e-014
lhumerus -37.8851 -14.2653 95.4388
lradius 33.4241
lwrist 26.6447
lhand -20.4639 55.2096
lfingers 7.12502
lthumb 5.89194 85.1077
rfemur -2.60389 11.9601 25.8952
rtibia 14.132
rfoot -15.3088 -39.0689
rtoes 4.40756
lfemur -16.6428 -8.24454 -15.136
ltibia 30.7785
lfoot -20.4258 8.20194
ltoes -35.7057
64
root -20.386 17.459 -3.02702 -149.551 80.953 -155.556
lowerback 2.08248 -0.0353549 -0.396222
upperback -2.88628 0.0374783 1.78323
thorax -4.143 0.0760358 2.05897
lowerneck -21.8066 0.323883 -0.477151
upperneck 29.092 -0.0237948 3.44816
head 13.4713 0.606342 1.48236
rclavicle -3.58511e-015 1.42131e-014
rhumerus -36.7793 1.6963 -81.7274
rradius 28.8957
rwrist 2.55725
rhand -16.8729 20.1131
rfingers 7.12502
rthumb 9.35794 -9.65919
lclavicle -3.58511e-015 1.42131e-014
lhumerus -37.908 -14.4488 95.5388
lradius 33.6132
lwrist 26.5242
lhand -20.3599 55.3235
lfingers 7.12502
lthumb 5.99234 85.2187
rfemur -2.51351 11.6266 25.9325
rtibia 13.8615
rfoot -15.1939 -39.0569
rtoes 4.08016
lfemur -16.8074 -8.32219 -15.0714
ltibia 30.8417
lfoot -20.4601 7.94258
ltoes -35.7674
65
root -20.3697 17.4608 -3.04575 -150.14 80.7521 -156.285
lowerback 2.05149 0.0191022 -0.537194
upperback -2.89172 0.101547 1.72429
thorax -4.13373 0.11098 2.07361
lowerneck -22.0584 0.145683 -0.198942
upperneck 29.4633 -0.200745 2.88956
head 13.6855 0.488817 1.19232
rclavicle -3.79399e-015 -6.31141e-015
rhumerus -36.7022 1.44454 -81.3553
rradius 28.5406
rwrist 2.59016
rhand -16.6529 20.1853
rfingers 7.12502
rthumb 9.57022 -9.57731
lclavicle -3.79399e-015 -6.31141e-015
lhumerus -37.8573 -14.4584 95.5067
lradius 33.7277
lwrist 26.4101
lhand -20.3009 55.3191
lfingers 7.12502
lthumb 6.04929 85.2128
rfemur -2.49032 11.3635 25.8322
rtibia 13.6467
rfoot -15.0548 -38.9886
rtoes 3.77351
lfemur -16.9506 -8.49794 -15.1305
ltibia 30.874
lfoot -20.4836 7.89827
ltoes -35.7044
